<svg xmlns="http://www.w3.org/2000/svg" viewBox="-4 -4 74 78"><rect x="-4" y="-4" width="74" height="78" fill="hsl(240, 7%, 96%)"/><path d="M4.77602 1L21.5854 16.774M4.77602 1L23.0471 25.0569M4.77602 1L9.95281 21.2809M4.77602 1L8.67384 31.3299M21.5854 16.774L23.0471 25.0569M21.5854 16.774L32.8525 15.495L43.8151 16.774M23.0471 25.0569L9.95281 21.2809M23.0471 25.0569L8.67384 31.3299M9.95281 21.2809L8.67384 31.3299M8.67384 31.3299L1 50.0882M8.67384 31.3299L17.9312 36.9331M1 50.0882L17.9312 36.9331M1 50.0882L15.8605 43.7543M1 50.0882L11.11 50.5754M17.9312 36.9331L27.493 40.7091L27.7975 43.0843M17.9312 36.9331L20.1237 40.9527M17.9312 36.9331L15.8605 43.7543M27.7975 43.0843L20.1237 40.9527M27.7975 43.0843L28.0411 46.1295L25.605 51.5499M20.1237 40.9527L15.8605 43.7543M15.8605 43.7543L25.605 51.5499M15.8605 43.7543L11.11 50.5754M25.605 51.5499L11.11 50.5754M25.605 51.5499L22.0726 56.0568M25.605 51.5499L26.5473 63.1597M25.605 51.5499L28.772 61.2336M11.11 50.5754L22.0726 56.0568M22.0726 56.0568L26.5473 63.1597M26.5473 63.1597L32.8525 68.8465M28.772 61.2336L32.8525 68.8465M28.772 61.2336L32.8525 63.3652M28.772 61.2336L30.051 58.8583H35.4714L36.8722 61.2336M32.8525 68.8465V63.3652M32.8525 68.8465L36.8722 61.2336M32.8525 68.8465L39.0968 63.1597M32.8525 63.3652L36.8722 61.2336M36.8722 61.2336L39.9782 51.5499M39.9782 51.5499L39.0968 63.1597M39.9782 51.5499L43.5106 56.0568M39.9782 51.5499L37.3594 46.1295L37.7857 43.0843M39.9782 51.5499L54.5342 50.5754M39.9782 51.5499L49.9055 43.7543M39.0968 63.1597L43.5106 56.0568M43.5106 56.0568L54.5342 50.5754M37.7857 43.0843L38.2729 40.7091L47.7739 36.9331M37.7857 43.0843L45.5814 40.9527M47.7739 36.9331L45.5814 40.9527M47.7739 36.9331L64.6441 50.0882M47.7739 36.9331L49.9055 43.7543M47.7739 36.9331L57.0921 31.0254M45.5814 40.9527L49.9055 43.7543M49.9055 43.7543L64.6441 50.0882M49.9055 43.7543L54.5342 50.5754M64.6441 50.0882L54.5342 50.5754M64.6441 50.0882L57.0921 31.0254M57.0921 31.0254L42.658 25.0569M57.0921 31.0254L60.8072 1M57.0921 31.0254L55.6304 21.2809M42.658 25.0569L43.8151 16.774M42.658 25.0569L55.6304 21.2809M42.658 25.0569L60.8072 1M43.8151 16.774L60.8072 1M60.8072 1L55.6304 21.2809" fill="none" stroke="hsl(162, 72%, 65%)" stroke-width="2" stroke-linejoin="round"/></svg>
